<?xml version="1.0" encoding="UTF-8" standalone="no"?>
<svg
   xmlns:dc="http://purl.org/dc/elements/1.1/"
   xmlns:cc="http://creativecommons.org/ns#"
   xmlns:rdf="http://www.w3.org/1999/02/22-rdf-syntax-ns#"
   xmlns:svg="http://www.w3.org/2000/svg"
   xmlns="http://www.w3.org/2000/svg"
   xmlns:sodipodi="http://sodipodi.sourceforge.net/DTD/sodipodi-0.dtd"
   xmlns:inkscape="http://www.inkscape.org/namespaces/inkscape"
   width="271.45343mm"
   height="90.215721mm"
   viewBox="0 0 271.45343 90.21572"
   version="1.1"
   id="svg8"
   inkscape:version="1.0 (4035a4fb49, 2020-05-01)"
   sodipodi:docname="Propped-Red.svg">
  <defs
     id="defs2" />
  <sodipodi:namedview
     id="base"
     pagecolor="#ffffff"
     bordercolor="#666666"
     borderopacity="1.0"
     inkscape:pageopacity="0.0"
     inkscape:pageshadow="2"
     inkscape:zoom="0.7"
     inkscape:cx="525.33209"
     inkscape:cy="246.35839"
     inkscape:document-units="mm"
     inkscape:current-layer="layer1"
     inkscape:document-rotation="0"
     showgrid="false"
     inkscape:window-width="1366"
     inkscape:window-height="705"
     inkscape:window-x="-8"
     inkscape:window-y="-8"
     inkscape:window-maximized="1" />
  <metadata
     id="metadata5">
    <rdf:RDF>
      <cc:Work
         rdf:about="">
        <dc:format>image/svg+xml</dc:format>
        <dc:type
           rdf:resource="http://purl.org/dc/dcmitype/StillImage" />
        <dc:title />
      </cc:Work>
    </rdf:RDF>
  </metadata>
  <g
     inkscape:label="Layer 1"
     inkscape:groupmode="layer"
     id="layer1"
     transform="translate(50.652971,-81.051461)">
    <path
       style="mix-blend-mode:normal;fill:#cd0a31;fill-opacity:1;stroke:none;stroke-width:0.391599px;stroke-linecap:butt;stroke-linejoin:miter;stroke-opacity:1"
       d="M -26.485864,93.262923 220.80047,81.051461 187.34055,171.26718 -50.652971,163.25541 Z"
       id="path837"
       sodipodi:nodetypes="ccccc" />
    <g
       aria-label="Propped"
       transform="matrix(6.310062,0.17561484,-0.17561484,6.310062,-396.27784,-753.39732)"
       id="text841"
       style="font-style:normal;font-weight:normal;font-size:10.5833px;line-height:1.25;font-family:sans-serif;white-space:pre;inline-size:0;fill:#000000;fill-opacity:1;stroke:none;stroke-width:0.264583">
      <path
         d="m 65.787506,140.20801 c 0.201083,-0.75142 0.529165,-1.60867 0.910164,-2.42358 0.0635,0.0953 0.169333,0.15875 0.275166,0.15875 0.201082,0 1.301745,-0.32808 1.873244,-0.52917 2.074326,-0.75141 3.492489,-2.03199 3.492489,-3.36549 0,-1.00541 -0.740831,-1.46049 -1.873245,-1.46049 -1.703911,0 -3.555988,0.83608 -5.439816,2.59291 -0.05292,0.0423 -0.07408,0.10583 -0.07408,0.16933 0,0.17992 0.179916,0.40217 0.338666,0.40217 0.04233,0 0.07408,-0.0106 0.116416,-0.0423 1.830911,-1.53458 3.185573,-2.43416 4.667235,-2.43416 0.582082,0 0.973664,0.254 0.973664,0.79375 0,1.19591 -1.767411,2.65641 -4.13807,3.25966 0.402165,-0.83608 0.846664,-1.61925 1.259412,-2.2225 0.03175,-0.0423 0.04233,-0.0847 0.04233,-0.11641 0,-0.14817 -0.232833,-0.22225 -0.507999,-0.22225 -0.296332,0 -0.645581,0.0952 -0.761997,0.29633 -0.867831,1.42875 -1.566329,3.06916 -1.852078,4.38149 -0.01058,0.0529 -0.02117,0.10583 -0.02117,0.15875 0,0.40216 0.296332,0.82549 0.518581,0.82549 0.08467,0 0.15875,-0.0635 0.201083,-0.22224 z"
         style="font-style:normal;font-variant:normal;font-weight:normal;font-stretch:normal;font-family:Kinescope;-inkscape-font-specification:Kinescope;fill:#ffffff;fill-opacity:1;stroke-width:0.264583"
         id="path843" />
      <path
         d="m 71.274451,138.82159 c -0.116416,0.27517 -0.486832,0.74083 -0.486832,1.016 0,0.3175 0.148166,0.46566 0.412749,0.46566 0.656164,0 2.508242,-1.19591 3.20674,-1.75682 0.05292,-0.0529 0.08467,-0.15875 0.08467,-0.27517 0,-0.16933 -0.05292,-0.33866 -0.148166,-0.33866 -0.02117,0 -0.05292,0.0106 -0.07408,0.0317 -0.433916,0.34924 -1.449912,1.15358 -2.539992,1.57691 0,-0.3175 0.486832,-0.81492 0.486832,-1.18533 0,-0.13759 -0.0635,-0.254 -0.254,-0.33867 -0.148166,-0.0635 -0.296332,-0.127 -0.486831,-0.1905 0.03175,-0.0953 0.05292,-0.1905 0.05292,-0.27516 0,-0.28575 -0.201083,-0.46567 -0.582081,-0.46567 -0.455082,0 -0.783165,0.39158 -0.783165,0.78317 0,0.15875 0.04233,0.30691 0.15875,0.44449 0.02117,0.0317 0.04233,0.0635 0.07408,0.0847 -0.518582,0.49742 -1.068913,0.96308 -1.693328,1.42875 -0.04233,0.0317 -0.07408,0.10583 -0.07408,0.17991 0,0.15875 0.09525,0.32808 0.253999,0.32808 0.05292,0 0.09525,-0.0106 0.15875,-0.0529 0.666748,-0.42333 1.090079,-0.83608 1.841494,-1.59808 0.105833,0.0423 0.243416,0.0741 0.391582,0.13758 z"
         style="font-style:normal;font-variant:normal;font-weight:normal;font-stretch:normal;font-family:Kinescope;-inkscape-font-specification:Kinescope;fill:#ffffff;fill-opacity:1;stroke-width:0.264583"
         id="path845" />
      <path
         d="m 74.662596,139.55184 c -0.264583,0 -0.412749,-0.22225 -0.412749,-0.46566 0,-0.45509 0.391582,-0.83609 0.730248,-0.99483 0.211666,-0.0952 0.296332,-0.22225 0.296332,-0.35984 0,-0.14816 -0.07408,-0.22225 -0.190499,-0.22225 -0.719665,0 -1.904994,0.80433 -1.904994,1.88383 0,0.51858 0.349248,0.94191 1.068913,0.94191 0.719664,0 1.460495,-0.52916 1.873244,-1.15357 0.116416,0.0317 0.253999,0.0529 0.380999,0.0529 0.687914,0 1.280579,-0.3175 1.672161,-0.635 0.0635,-0.0529 0.09525,-0.20108 0.09525,-0.33866 0,-0.14817 -0.03175,-0.28575 -0.105833,-0.28575 -0.02117,0 -0.04233,0.0106 -0.179916,0.11642 -0.486832,0.37041 -0.931331,0.57149 -1.386413,0.57149 -0.07408,0 -0.148166,0 -0.211666,-0.0106 0.04233,-0.14817 0.07408,-0.28575 0.07408,-0.43392 0,-0.45508 -0.232832,-0.66674 -0.571498,-0.66674 -0.275166,0 -0.592664,0.1905 -0.592664,0.66674 0,0.26459 0.105833,0.49742 0.275165,0.66675 -0.211666,0.37042 -0.507998,0.66675 -0.910163,0.66675 z"
         style="font-style:normal;font-variant:normal;font-weight:normal;font-stretch:normal;font-family:Kinescope;-inkscape-font-specification:Kinescope;fill:#ffffff;fill-opacity:1;stroke-width:0.264583"
         id="path847" />
      <path
         d="m 79.257732,137.41401 c 0.01058,-0.0212 0.02117,-0.0423 0.02117,-0.0635 0,-0.15875 -0.285749,-0.30691 -0.560915,-0.30691 -0.190499,0 -0.359832,0.0635 -0.444498,0.23283 -0.571498,1.16416 -1.947327,4.14865 -2.27541,5.07998 -0.01058,0.0317 -0.02117,0.0635 -0.02117,0.10584 0,0.26458 0.264582,0.5715 0.476248,0.5715 0.0635,0 0.137583,-0.0317 0.179916,-0.10584 0.455082,-0.81491 0.973664,-2.14841 1.375829,-2.9104 l 0.370416,-0.6985 c 0.222249,-0.42333 0.86783,-1.016 1.259412,-1.016 0.15875,0 0.264583,0.11642 0.264583,0.29633 0,0.24342 -0.179916,0.59267 -0.624415,0.9525 -0.433915,0 -0.83608,0.16933 -0.83608,0.4445 0,0.14817 0.116416,0.33866 0.402165,0.33866 h 0.04233 c 1.18533,-0.0318 3.14324,-0.97366 4.222737,-1.76741 0.07408,-0.0529 0.105833,-0.16933 0.105833,-0.28575 0,-0.16933 -0.0635,-0.34924 -0.15875,-0.34924 -0.02117,0 -0.08467,0.0529 -0.222249,0.15875 -0.402166,0.33866 -1.322913,1.03716 -2.550575,1.36524 0.380998,-0.40216 0.677331,-0.87841 0.677331,-1.29116 0,-0.45508 -0.264583,-0.65617 -0.740831,-0.65617 -0.423332,0 -0.899581,0.28575 -1.312329,0.64559 0.126999,-0.27517 0.232832,-0.52917 0.349249,-0.74084 z"
         style="font-style:normal;font-variant:normal;font-weight:normal;font-stretch:normal;font-family:Kinescope;-inkscape-font-specification:Kinescope;fill:#ffffff;fill-opacity:1;stroke-width:0.264583"
         id="path849" />
      <path
         d="m 84.1153,137.41401 c 0.01058,-0.0212 0.02117,-0.0423 0.02117,-0.0635 0,-0.15875 -0.285749,-0.30691 -0.560915,-0.30691 -0.190499,0 -0.359832,0.0635 -0.444499,0.23283 -0.571498,1.16416 -1.947327,4.14865 -2.275409,5.07998 -0.01058,0.0317 -0.02117,0.0635 -0.02117,0.10584 0,0.26458 0.264583,0.5715 0.476249,0.5715 0.0635,0 0.137583,-0.0317 0.179916,-0.10584 0.455082,-0.81491 0.973664,-2.14841 1.375829,-2.9104 l 0.370415,-0.6985 c 0.22225,-0.42333 0.867831,-1.016 1.259413,-1.016 0.15875,0 0.264583,0.11642 0.264583,0.29633 0,0.24342 -0.179916,0.59267 -0.624415,0.9525 -0.433915,0 -0.836081,0.16933 -0.836081,0.4445 0,0.14817 0.116417,0.33866 0.402166,0.33866 h 0.04233 c 1.185329,-0.0318 3.14324,-0.97366 4.222736,-1.76741 0.07408,-0.0529 0.105833,-0.16933 0.105833,-0.28575 0,-0.16933 -0.0635,-0.34924 -0.158749,-0.34924 -0.02117,0 -0.08467,0.0529 -0.222249,0.15875 -0.402166,0.33866 -1.322913,1.03716 -2.550576,1.36524 0.380999,-0.40216 0.677332,-0.87841 0.677332,-1.29116 0,-0.45508 -0.264583,-0.65617 -0.740831,-0.65617 -0.423332,0 -0.899581,0.28575 -1.31233,0.64559 0.127,-0.27517 0.232833,-0.52917 0.349249,-0.74084 z"
         style="font-style:normal;font-variant:normal;font-weight:normal;font-stretch:normal;font-family:Kinescope;-inkscape-font-specification:Kinescope;fill:#ffffff;fill-opacity:1;stroke-width:0.264583"
         id="path851" />
      <path
         d="m 88.221455,140.30325 c 1.068913,0 2.137826,-0.70908 3.524239,-1.70391 0.137582,-0.0953 0.169332,-0.15875 0.169332,-0.34925 0,-0.0952 -0.07408,-0.30691 -0.169332,-0.30691 -0.105833,0 -1.301746,1.10066 -2.465909,1.55574 -0.201083,0.0741 -0.433916,0.13759 -0.656165,0.13759 -0.222249,0 -0.423332,-0.0529 -0.518581,-0.21167 0.77258,-0.16933 1.703911,-0.60325 1.703911,-1.26999 0,-0.41275 -0.317499,-0.64559 -0.867831,-0.64559 -0.857247,0 -1.979077,0.79375 -1.979077,1.70391 0,0.78317 0.486832,1.09008 1.259413,1.09008 z m 0.560915,-2.26482 c 0.116416,0 0.179916,0.0847 0.179916,0.1905 0,0.22225 -0.253999,0.55033 -0.888997,0.67733 0.07408,-0.52917 0.380998,-0.86783 0.709081,-0.86783 z"
         style="font-style:normal;font-variant:normal;font-weight:normal;font-stretch:normal;font-family:Kinescope;-inkscape-font-specification:Kinescope;fill:#ffffff;fill-opacity:1;stroke-width:0.264583"
         id="path853" />
      <path
         d="m 92.437577,137.50926 c -0.634998,0 -2.11666,1.24883 -2.11666,2.16958 0,0.45508 0.264582,0.65616 0.740831,0.65616 0.423332,0 0.96308,-0.30691 1.439329,-0.78316 -0.03175,0.10583 -0.04233,0.20108 -0.04233,0.28575 0,0.3175 0.09525,0.52916 0.359833,0.52916 0.719664,0 0.740831,-0.38099 0.740831,-0.47624 0,-0.0952 0.01058,-0.30692 0.04233,-0.48684 0.04233,-0.27516 0.190499,-0.63499 0.306915,-0.88899 0.994831,-1.3335 2.963324,-4.70957 2.963324,-5.28107 0,-0.21167 -0.126999,-0.53975 -0.328082,-0.53975 -0.624415,0 -3.07974,4.58257 -3.640655,5.9584 -0.253999,0.40217 -0.973664,0.889 -1.259413,0.889 -0.190499,0 -0.253999,-0.14817 -0.253999,-0.30692 0,-0.13758 0.04233,-0.28575 0.105833,-0.35983 0.455082,-0.0741 1.344079,-0.48683 1.344079,-1.02658 0,-0.14817 -0.116416,-0.33867 -0.402165,-0.33867 z"
         style="font-style:normal;font-variant:normal;font-weight:normal;font-stretch:normal;font-family:Kinescope;-inkscape-font-specification:Kinescope;fill:#ffffff;fill-opacity:1;stroke-width:0.264583"
         id="path855" />
    </g>
  </g>
</svg>
